<svg xmlns="http://www.w3.org/2000/svg" xmlns:xlink="http://www.w3.org/1999/xlink" width="381.321" height="354.227" viewBox="0 0 381.321 354.227">
  <defs>
    <linearGradient id="linear-gradient" x1="0.5" y1="0.923" x2="0.5" y2="-0.187" gradientUnits="objectBoundingBox">
      <stop offset="0" stop-color="#fff"/>
      <stop offset="0.126" stop-color="#f8fbfe"/>
      <stop offset="0.305" stop-color="#e5f3fc"/>
      <stop offset="0.516" stop-color="#c6e4f9"/>
      <stop offset="0.752" stop-color="#9bd0f4"/>
      <stop offset="1" stop-color="#6c63ff"/>
    </linearGradient>
  </defs>
  <g id="Group_9" data-name="Group 9" transform="translate(-523.584 -127.923)">
    <path id="Path_92" data-name="Path 92" d="M604.91,468.309H813.19c46.42-32,76.771-84.774,76.771-144.506,0-97.628-81-190.8-180.91-190.8S528.139,226.174,528.139,323.8C528.139,383.535,558.49,436.308,604.91,468.309Z" transform="translate(5.194 5.79)" opacity="0.42" fill="url(#linear-gradient)"/>
    <ellipse id="Ellipse_5" data-name="Ellipse 5" cx="190.66" cy="7.516" rx="190.66" ry="7.516" transform="translate(523.584 467.116)" fill="#cee5ed" opacity="0.43"/>
    <g id="Group_31" data-name="Group 31" transform="translate(607.671 263.685)">
      <rect id="Rectangle_9" data-name="Rectangle 9" width="8.674" height="82.947" transform="translate(35.685 120.522)" fill="#aac6ce"/>
      <rect id="Rectangle_10" data-name="Rectangle 10" width="8.674" height="11.661" transform="translate(35.685 120.522)" fill="#85b0ba"/>
      <path id="Rectangle_11" data-name="Rectangle 11" d="M2.348,0H80.423a2.348,2.348,0,0,1,2.348,2.348V7.612a0,0,0,0,1,0,0H0a0,0,0,0,1,0,0V2.348A2.348,2.348,0,0,1,2.348,0Z" transform="translate(0 203.497)" fill="#aac6ce"/>
      <path id="Path_93" data-name="Path 93" d="M582.294,311.961H642.4c-21.871-7.855-13.411-81.85-9.368-109.9a9.375,9.375,0,0,0-9.287-10.708H583.713a16.4,16.4,0,0,0-16.257,14.156c-3.512,25.486-9.049,78.332,1.918,98.79A14.637,14.637,0,0,0,582.294,311.961Z" transform="translate(-562.836 -191.355)" fill="#aac6ce"/>
    </g>
    <g id="Group_34" data-name="Group 34" transform="translate(543.542 127.923)">
      <circle id="Ellipse_6" data-name="Ellipse 6" cx="42.134" cy="42.134" r="42.134" transform="matrix(0.976, -0.218, 0.218, 0.976, 0, 18.378)" fill="#3e8ccc"/>
      <circle id="Ellipse_7" data-name="Ellipse 7" cx="34.402" cy="34.402" r="34.402" transform="translate(15.907 15.907)" fill="#cee5ed"/>
      <path id="Path_94" data-name="Path 94" d="M556.415,139.822" transform="translate(-506.106 -114.354)" fill="none" stroke="#3e8ccc" stroke-width="1"/>
      <g id="Group_33" data-name="Group 33" transform="translate(38.398 23.709)">
        <g id="Group_32" data-name="Group 32">
          <path id="Path_95" data-name="Path 95" d="M552.99,177.336a2.14,2.14,0,0,1-1.513-3.653l8.968-8.97V141.14a2.14,2.14,0,0,1,4.281,0V165.6a2.144,2.144,0,0,1-.627,1.513l-9.595,9.6A2.133,2.133,0,0,1,552.99,177.336Z" transform="translate(-550.85 -139)" fill="#3e8ccc"/>
        </g>
        <path id="Path_96" data-name="Path 96" d="M563.76,153.763a4.928,4.928,0,1,0-4.929,4.927A4.929,4.929,0,0,0,563.76,153.763Z" transform="translate(-547.367 -127.787)" fill="#1e394c"/>
      </g>
    </g>
    <g id="Group_36" data-name="Group 36" transform="translate(755.176 217.444)">
      <path id="Path_97" data-name="Path 97" d="M710.371,169.75h-71.9a6.676,6.676,0,0,0-6.675,6.675v32.4a6.676,6.676,0,0,0,6.675,6.675h5.021v7.833a1.256,1.256,0,0,0,2.1.933l9.723-8.767h55.063a6.674,6.674,0,0,0,6.676-6.675v-32.4A6.674,6.674,0,0,0,710.371,169.75Z" transform="translate(-631.791 -169.75)" fill="#62bdf4"/>
      <g id="Group_35" data-name="Group 35" transform="translate(22.207 20.425)">
        <circle id="Ellipse_8" data-name="Ellipse 8" cx="2.94" cy="2.94" r="2.94" transform="translate(0 0)" fill="#34648c"/>
        <circle id="Ellipse_9" data-name="Ellipse 9" cx="2.94" cy="2.94" r="2.94" transform="translate(18.085 0)" fill="#34648c"/>
        <circle id="Ellipse_10" data-name="Ellipse 10" cx="2.94" cy="2.94" r="2.94" transform="translate(34.964)" fill="#34648c"/>
      </g>
    </g>
    <g id="Group_39" data-name="Group 39" transform="translate(571.54 288.608)">
      <g id="Group_37" data-name="Group 37" transform="translate(1.758)">
        <path id="Path_98" data-name="Path 98" d="M571.827,218.874c0-7.93-5.6-15.874-12.508-15.874s-12.508,7.945-12.508,15.874,5.6,14.357,12.508,14.357S571.827,226.8,571.827,218.874Z" transform="translate(-546.812 -203)" fill="#67b8ef"/>
        <path id="Path_99" data-name="Path 99" d="M554.366,203a9.247,9.247,0,0,0-3.21.6c5.349,1.973,9.3,8.619,9.3,15.271s-3.949,12.232-9.3,13.862a11,11,0,0,0,3.21.494c6.909,0,12.508-6.427,12.508-14.357S561.275,203,554.366,203Z" transform="translate(-541.859 -203)" fill="#34648c" opacity="0.25"/>
      </g>
      <g id="Group_38" data-name="Group 38" transform="translate(0 23.185)">
        <path id="Path_100" data-name="Path 100" d="M546,215.9l2.241,20.294a5.01,5.01,0,0,0,4.978,4.458h12.936a5.007,5.007,0,0,0,4.976-4.458l2.241-20.294a1.865,1.865,0,0,0-1.853-2.07H547.856A1.865,1.865,0,0,0,546,215.9Z" transform="translate(-545.991 -213.833)" fill="#cee5ed"/>
        <path id="Path_101" data-name="Path 101" d="M547.856,216.866H571.52a1.836,1.836,0,0,1,1.633,1.04l.22-2a1.865,1.865,0,0,0-1.853-2.07H547.856A1.865,1.865,0,0,0,546,215.9l.223,2A1.833,1.833,0,0,1,547.856,216.866Z" transform="translate(-545.991 -213.833)" fill="#aac6ce"/>
        <path id="Path_102" data-name="Path 102" d="M565.148,213.833h-8.2a1.865,1.865,0,0,1,1.854,2.07L556.555,236.2a5.008,5.008,0,0,1-4.976,4.458h8.206a5.007,5.007,0,0,0,4.976-4.458L567,215.9A1.865,1.865,0,0,0,565.148,213.833Z" transform="translate(-539.618 -213.833)" fill="#aac6ce"/>
      </g>
    </g>
    <g id="Group_44" data-name="Group 44" transform="translate(614.156 219.409)">
      <g id="Group_42" data-name="Group 42" transform="translate(0.645 123.748)">
        <g id="Group_40" data-name="Group 40" transform="translate(34.674 9.131)">
          <path id="Path_103" data-name="Path 103" d="M606.8,281.479l-.849,5.865,4.463,5.71,11.318-5.541,1.226-5.364-14.089-2.13Z" transform="translate(-555.559 -178.857)" fill="#f2bf75"/>
          <path id="Path_104" data-name="Path 104" d="M616.763,296.453l1.169-1.447a.546.546,0,0,1,.839-.013l1.173,1.376a2.456,2.456,0,0,0,1.9.86l26.3-.449a1.408,1.408,0,0,0,.045-1.986c-3.853-3.891-24.6-10.616-25.63-11.183s-7.377,4.362-15.782-.169a89.165,89.165,0,0,0-1.558,10.849,3,3,0,0,0,3.037,3.17l6.673-.113A2.411,2.411,0,0,0,616.763,296.453Z" transform="translate(-556.392 -174.955)" fill="#1e394c"/>
          <path id="Path_105" data-name="Path 105" d="M585.38,236.265s-10.92,12.071,9.075,25.189c14.027,9.2,25.082,6.391,33.887,11.968a7.417,7.417,0,0,1,3.78,5.7l.447,56.43,1.064.529a19.388,19.388,0,0,0,16.863.184h0l7.962-64.386c.285-4.439-2.112-8.18-4.861-11.677-15.29-19.449-42.36-26.038-49.213-27.162C595.476,231.575,585.38,236.265,585.38,236.265Z" transform="translate(-582.404 -232.753)" fill="#1e394c"/>
        </g>
        <g id="Group_41" data-name="Group 41">
          <path id="Path_106" data-name="Path 106" d="M586.522,281.461l-.929,5.853,4.384,5.771L601.37,287.7l1.3-5.347-14.059-2.322Z" transform="translate(-544.095 -169.714)" fill="#f2bf75"/>
          <path id="Path_107" data-name="Path 107" d="M596.311,296.579l1.188-1.43a.544.544,0,0,1,.839,0l1.154,1.391a2.456,2.456,0,0,0,1.894.886l26.3-.088a1.415,1.415,0,0,0,.071-1.988c-3.8-3.942-24.45-10.95-25.473-11.532s-7.437,4.261-15.778-.385a88.933,88.933,0,0,0-1.708,10.828,3,3,0,0,0,2.994,3.21l6.673-.024A2.4,2.4,0,0,0,596.311,296.579Z" transform="translate(-545.008 -165.834)" fill="#1e394c"/>
          <path id="Path_108" data-name="Path 108" d="M570.66,230.606s-13.231,14.746,5.9,31.4c13.422,11.684,25.465,6.688,33.917,13.813a7.868,7.868,0,0,1,3.155,6.528l-6.042,57.4.456.3a18.19,18.19,0,0,0,17.64,1.2h0l14.958-60.486c.937-4.623-1.047-8.9-3.433-12.97-13.276-22.633-34.12-36.123-41.159-38.289C586.9,226.691,570.66,230.606,570.66,230.606Z" transform="translate(-566.204 -228.487)" fill="#1e394c"/>
        </g>
        <path id="Path_109" data-name="Path 109" d="M617.932,271.627a26.242,26.242,0,0,0-3.082-1.07,26.326,26.326,0,0,0-3.36-7.812A103.6,103.6,0,0,0,588.76,236.1c4.794-.813,7.234-1.841,8.561-3.189a90.118,90.118,0,0,1,14.361,3.9C618.189,247.678,618.167,265.335,617.932,271.627Z" transform="translate(-540.483 -223.444)" fill="#0f2a3f"/>
      </g>
      <path id="Path_110" data-name="Path 110" d="M606.5,193.1s-19.083-2.545-27.012,12.324-19.772,73.156-9.417,74.929c4.584.786,16.81,3.861,30.358,2.87,18.627-1.363,22.676-3.078,24.018-6.62l11.866-54.318a22.967,22.967,0,0,0-9.008-19.177A64.67,64.67,0,0,0,606.5,193.1Z" transform="translate(-565.772 -145.274)" fill="#cee5ed"/>
      <path id="Path_111" data-name="Path 111" d="M604.435,204.42s.248,32.712,10.532,34.694,37.669,1.363,37.669,1.363v10.408H593.9Z" transform="translate(-533.974 -132.181)" fill="#aac6ce"/>
      <path id="Path_112" data-name="Path 112" d="M600.473,209.739l2.314-11.568L587.781,186.74l-2.874,13.64S589.639,221.2,600.473,209.739Z" transform="translate(-544.232 -152.341)" fill="#ea9249"/>
      <path id="Path_113" data-name="Path 113" d="M622.762,194.446s-7.851,3.82-19.352-3.189c0,0-2.669,4.8-10.376,9.079,0,0-4-6.714-6.312-1.682a10.642,10.642,0,0,0-1.059,4.105c-7.219-9.323-2.13-21.608,4.6-28.23,6.378-6.286,20.185-3.786,28.81-.319,9.156,3.686,10.838-2.727,10.838-2.727C641.485,187.782,622.762,194.446,622.762,194.446Z" transform="translate(-547.378 -170.668)" fill="#1e394c"/>
      <path id="Path_114" data-name="Path 114" d="M591.164,189.367s-4.006-6.714-6.312-1.684c-2.8,6.1.36,9.931,4.146,9.931,0,0,3.007,15.874,17.593,14.753s16.688-24.542,14.3-28.889c0,0-7.853,3.82-19.352-3.191C601.542,180.286,598.878,185.089,591.164,189.367Z" transform="translate(-545.511 -159.701)" fill="#f2bf75"/>
      <g id="Group_43" data-name="Group 43" transform="translate(66.814 66.794)">
        <path id="Path_115" data-name="Path 115" d="M686.347,201.876h-60.88a6.317,6.317,0,0,0-6.187,5.053l-8.1,39.725h73.766l7.592-37.2A6.315,6.315,0,0,0,686.347,201.876Z" transform="translate(-581.091 -201.876)" fill="#cee5ed"/>
        <rect id="Rectangle_12" data-name="Rectangle 12" width="106.623" height="6.983" rx="1.404" transform="translate(0 44.782)" fill="#80a9b2"/>
        <path id="Path_116" data-name="Path 116" d="M685.141,222.8H610.8a3,3,0,0,1,3,3v.972a3,3,0,0,1-3,3h74.342a3,3,0,0,0,3-3V225.8A3,3,0,0,0,685.141,222.8Z" transform="translate(-581.522 -178.017)" fill="#aac6ce"/>
      </g>
      <path id="Path_117" data-name="Path 117" d="M638.966,251.349c-11.853-1.38-45.1-4.773-50.8-5.361-7.187-.745,8.424-29.739,10.16-39.651s-5.824-10.286-5.824-10.286c-4.266-.533-8.921,0-12.886,6.006-8.116,12.292-17.154,48.22-12.39,57.089a3.207,3.207,0,0,0,2.834,1.68h68.908Z" transform="translate(-565.902 -141.905)" fill="#cee5ed"/>
      <path id="Path_118" data-name="Path 118" d="M629.435,251.348s-42.809-2.945-52.041-4.184c-7.161-.961,7.765-30.668,9.5-40.579s-5.948-9.5-5.948-9.5a18.4,18.4,0,0,0-6.684.627,12.391,12.391,0,0,1,8.713-1.665s7.553.377,5.819,10.29-15.117,38.287-10.594,39.4C583.762,247.11,617.58,249.972,629.435,251.348Z" transform="translate(-556.371 -141.903)" fill="#aac6ce"/>
      <path id="Path_119" data-name="Path 119" d="M600.04,230.87h15.969a1.508,1.508,0,0,0,1.267-2.331c-1.5-2.3-3.857-5.545-5.588-6.1-1.032-.327-8.8-.039-11.647.263Z" transform="translate(-526.976 -111.794)" fill="#f2bf75"/>
      <path id="Path_120" data-name="Path 120" d="M612.308,181.777a12.713,12.713,0,0,1-3.615.9c-.195,1.081-.544,3.159-.73,5.128-.268,2.808,1.136,11.5.268,11.57a25.559,25.559,0,0,1-2.675-.066s-1.338,12.574-13.912,10.567c-.12-.019-.214-.032-.328-.049a15.876,15.876,0,0,0,6.688.839C612.588,209.545,614.692,186.124,612.308,181.777Z" transform="translate(-536.924 -158)" fill="#ea9249" opacity="0.67"/>
    </g>
    <g id="Group_49" data-name="Group 49" transform="translate(803.095 332.719)">
      <g id="Group_45" data-name="Group 45" transform="translate(44.353 12.387)">
        <path id="Path_121" data-name="Path 121" d="M700.048,310.18s20.057-9.948,14.6-25.03-8.824-15.725,1.605-24.23,25.512-29.844,6.419-31.449-18.132,23.748-34.017,27.278S664.107,326.707,700.048,310.18Z" transform="translate(-674.903 -229.398)" fill="#67b8ef"/>
        <path id="Path_122" data-name="Path 122" d="M679.277,311.673c3.85,1.787,9.03,1.612,15.784-1.494,0,0,20.057-9.948,14.6-25.03s-8.824-15.725,1.605-24.23,25.512-29.844,6.419-31.449a17.526,17.526,0,0,0-5.09.272c5.372,2.232,10.719,6.661,3.81,14.856-11.5,13.644-17.657,18.46-16.32,27.288C701.39,280.5,700.65,300.041,679.277,311.673Z" transform="translate(-669.917 -229.397)" fill="#34648c" opacity="0.25"/>
      </g>
      <g id="Group_46" data-name="Group 46" transform="translate(0 33.471)">
        <path id="Path_123" data-name="Path 123" d="M689.663,298.466s-17.651-.642-16.688-13.319,1.453-13.171-9.629-17.167c-19.575-7.061-4.077-44.659,11.874-21.02,11.072,16.405,15.885,12.715,23.106,14S721.273,304.082,689.663,298.466Z" transform="translate(-654.18 -239.249)" fill="#67b8ef"/>
        <path id="Path_124" data-name="Path 124" d="M697.613,260.959c-7.221-1.284-12.035,2.406-23.106-14-8.349-12.375-16.564-7.962-19.7.058,4.7-1.438,11.833-2.3,12.722,5.342,1.154,9.918,24.354,26.2,23.881,46.446.308.032.606.054.905.077,3.375-8.9,7.831-20.45,11.645-30.289C701.917,264.351,699.482,261.29,697.613,260.959Z" transform="translate(-653.467 -239.248)" fill="#34648c" opacity="0.29"/>
      </g>
      <g id="Group_47" data-name="Group 47" transform="translate(23.583)">
        <path id="Path_125" data-name="Path 125" d="M681.189,315.737s-21.9-21.422-14.44-25.033,22.143,8.184,13.959-4.572-17.711-32.626-6.4-29.5,12.133,6.566,10.733-8.291c-1.811-19.217,8.9-29.123,19.012-22.864s-8.664,48.618-1.685,44.044,12.756-8.424,14.2-2.887-19.984,27.271-12.035,23.586c9.869-4.572,11.313,3.611,8.184,8.666S696.592,334.028,681.189,315.737Z" transform="translate(-665.199 -223.61)" fill="#34648c"/>
        <path id="Path_126" data-name="Path 126" d="M701.517,298.882c3.129-5.055,1.684-13.238-8.184-8.666-7.949,3.686,13.479-18.051,12.035-23.586s-7.219-1.684-14.2,2.887,11.8-37.786,1.685-44.045c-4.7-2.911-9.516-2.288-13.161,1.1,5.233,1.28,9.424,5.49,6.519,16.855-6.153,24.078-9.9,44.143,1.338,38.257,10.584-5.543-12.292,20.005-12.525,38.418C688.156,327.612,698.735,303.374,701.517,298.882Z" transform="translate(-653.997 -223.602)" fill="#1e394c" opacity="0.48"/>
      </g>
      <g id="Group_48" data-name="Group 48" transform="translate(24.386 90.726)">
        <path id="Path_127" data-name="Path 127" d="M665.6,269.912l4.24,38.379a9.468,9.468,0,0,0,9.411,8.428h24.463a9.467,9.467,0,0,0,9.411-8.428l4.24-38.379A3.526,3.526,0,0,0,713.854,266H669.1A3.527,3.527,0,0,0,665.6,269.912Z" transform="translate(-665.574 -266)" fill="#cee5ed"/>
        <path id="Path_128" data-name="Path 128" d="M701.8,266H686.287a3.526,3.526,0,0,1,3.506,3.912l-4.24,38.379a9.467,9.467,0,0,1-9.411,8.428h15.517a9.467,9.467,0,0,0,9.411-8.428l4.24-38.379A3.526,3.526,0,0,0,701.8,266Z" transform="translate(-653.524 -266)" fill="#aac6ce"/>
      </g>
    </g>
    <g id="Group_68" data-name="Group 68" transform="translate(552.258 338.361)">
      <g id="Group_50" data-name="Group 50" transform="translate(8.284)">
        <rect id="Rectangle_13" data-name="Rectangle 13" width="272.974" height="12.391" rx="2.491" transform="translate(0 0)" fill="#3e8ccc"/>
        <path id="Path_129" data-name="Path 129" d="M808.494,226.246H546.183a5.331,5.331,0,0,0-5.332,5.331V233.3a5.321,5.321,0,0,0,.274,1.616,5.315,5.315,0,0,1,5.058-3.718H808.494a5.312,5.312,0,0,1,5.055,3.718,5.322,5.322,0,0,0,.276-1.616v-1.727A5.332,5.332,0,0,0,808.494,226.246Z" transform="translate(-540.851 -226.246)" fill="#2173aa"/>
      </g>
      <g id="Group_67" data-name="Group 67" transform="translate(0 12.453)">
        <g id="Group_52" data-name="Group 52" transform="translate(26.764)">
          <g id="Group_51" data-name="Group 51">
            <path id="Path_130" data-name="Path 130" d="M619.246,355.6h-8.767L549.486,232.064h8.767Z" transform="translate(-549.486 -232.064)" fill="#34648c"/>
          </g>
        </g>
        <g id="Group_54" data-name="Group 54">
          <g id="Group_53" data-name="Group 53">
            <path id="Path_131" data-name="Path 131" d="M536.981,355.6h8.767l60.993-123.537h-8.767Z" transform="translate(-536.981 -232.064)" fill="#34648c"/>
          </g>
        </g>
        <g id="Group_56" data-name="Group 56" transform="translate(215.601)">
          <g id="Group_55" data-name="Group 55">
            <path id="Path_132" data-name="Path 132" d="M707.477,355.6h-8.767L637.717,232.064h8.767Z" transform="translate(-637.717 -232.064)" fill="#34648c"/>
          </g>
        </g>
        <g id="Group_58" data-name="Group 58" transform="translate(188.837)">
          <g id="Group_57" data-name="Group 57">
            <path id="Path_133" data-name="Path 133" d="M625.212,355.6h8.767l60.993-123.537H686.2Z" transform="translate(-625.212 -232.064)" fill="#34648c"/>
          </g>
        </g>
        <g id="Group_60" data-name="Group 60" transform="translate(26.764)">
          <g id="Group_59" data-name="Group 59">
            <path id="Path_134" data-name="Path 134" d="M560.67,236.959l-2.417-4.895h-8.767l2.417,4.895Z" transform="translate(-549.486 -232.064)" fill="#1a3651"/>
          </g>
        </g>
        <g id="Group_62" data-name="Group 62" transform="translate(58.576)">
          <g id="Group_61" data-name="Group 61">
            <path id="Path_135" data-name="Path 135" d="M573.117,236.959l2.417-4.895h-8.767l-2.416,4.895Z" transform="translate(-564.35 -232.064)" fill="#1a3651"/>
          </g>
        </g>
        <g id="Group_64" data-name="Group 64" transform="translate(215.601)">
          <g id="Group_63" data-name="Group 63">
            <path id="Path_136" data-name="Path 136" d="M648.9,236.959l-2.417-4.895h-8.767l2.416,4.895Z" transform="translate(-637.717 -232.064)" fill="#1a3651"/>
          </g>
        </g>
        <g id="Group_66" data-name="Group 66" transform="translate(247.413)">
          <g id="Group_65" data-name="Group 65">
            <path id="Path_137" data-name="Path 137" d="M661.347,236.959l2.416-4.895H655l-2.417,4.895Z" transform="translate(-652.58 -232.064)" fill="#1a3651"/>
          </g>
        </g>
      </g>
    </g>
  </g>
</svg>
